<svg id="圖層_1" data-name="圖層 1" xmlns="http://www.w3.org/2000/svg" viewBox="0 0 982 126.73"><defs><style>.cls-1{fill:#18556d;}</style></defs><g id="pJiIGQ.tif"><path class="cls-1" d="M69.07,64.9c8.17-11.34,16.12-22.35,24-33.37,6.4-8.88,12.75-17.8,19.19-26.66C115.7.15,118.81-.33,123.68,3c2.61,1.77,5.17,3.63,7.72,5.49,5.43,4,5.92,7,1.92,12.53Q114.23,47.69,95,74.31c-4.85,6.74-9.64,13.51-14.53,20.21-4.07,5.57-7,6.09-12.52,2.19Q49.1,83.32,30.27,69.81c-5.19-3.73-5.65-6.91-2-12.15,1.56-2.17,3.08-4.35,4.66-6.48,4.77-6.58,7.18-6.94,14-2.11Z" transform="translate(-0.01 -0.04)"/><path class="cls-1" d="M35.4,126.76a23.79,23.79,0,0,1-24-20.07C7.68,84.81,4,62.93.49,41c-2.55-16,5.2-26.86,21.26-29.64C44.17,7.5,66.66,3.94,89.13.31A12.39,12.39,0,0,1,93.59.18c2.38.51,6.65,0,5.75,3.62-.68,2.76-3.81,6.48-6.38,7-17.62,3.3-35.39,5.85-53.1,8.66q-8.13,1.29-16.25,2.62c-9.54,1.5-13.81,7.23-12.26,16.75q5.14,31.89,10.44,63.74c1.73,10.4,7,14.39,17.39,12.75q32.74-5.19,65.42-10.79c8.47-1.44,12.65-7.84,11.15-16.28-.9-5.06-1.27-10.25-2.67-15.16-1.49-5.23,1.22-8.58,4.15-11.94,2.21-2.53,4.61-1.87,5.21,1.5,1.73,9.62,3.76,19.23,4.62,28.94,1,10.59-7.51,21.29-18.61,23.31-23.38,4.25-46.87,7.82-70.32,11.65C37.14,126.71,36.13,126.7,35.4,126.76Z" transform="translate(-0.01 -0.04)"/><path class="cls-1" d="M279.63,69.49V36.81c0-2.76-.63-5.69,3.74-6.12,6.53-.65,10.12.57,11.23,4.63a17.76,17.76,0,0,1,.46,4.42c0,15.08-.15,30.16.12,45.24.07,4.43-1.73,6.21-5.74,7.06-7.68,1.62-12.83-.56-16.47-7.57-5.39-10.38-10.69-20.81-16-31.19,0,10.9-.24,21.75.11,32.58.16,4.74-1.47,6.49-6.07,6.58-6.25.12-9.07-1.45-9.18-6.43-.24-10.27-.15-20.55-.16-30.82,0-6-.26-12,.25-17.88a7.72,7.72,0,0,1,3.73-5.42c6.93-3.25,14.13-.52,17.64,6.19C268.66,48.31,274,58.63,279.63,69.49Z" transform="translate(-0.01 -0.04)"/><path class="cls-1" d="M426,69.36c0-11.82.18-22.25-.08-32.67-.11-4.17,1-6,5.46-6.08,7,0,9.68,1.23,9.86,6.16.24,6.62.1,13.25.11,19.88,0,9.78-.13,19.56.06,29.33.07,3.52-1.39,5-4.62,5.85-8.1,2.06-13.48-.18-17.3-7.51L403.22,53.07V91.31c-2.08.38-3.83.85-5.6,1-7,.55-9.53-1.72-9.55-8.69-.05-15.25.06-30.5-.08-45.74,0-3.65,1.53-5.39,4.82-6.43,7.31-2.3,13.57,0,17.17,6.8C415.22,48.19,420.27,58.21,426,69.36Z" transform="translate(-0.01 -0.04)"/><path class="cls-1" d="M773.82,61.58c0,19.11-12.22,31.75-30.74,31.84-18.87.09-31.25-12.47-31.32-31.79-.07-19.07,12.59-31.92,31.28-31.86C761.49,29.82,773.84,42.58,773.82,61.58ZM758,61.45c-.83-3.57-1.2-7.26-2.55-10.56-2.2-5.35-6.5-8.1-12.47-8.13s-10.39,2.55-12.72,7.83a27.7,27.7,0,0,0-.19,21.73c2.09,5.37,7,8.21,13,8.1s10.63-3.18,12.54-8.76A96.91,96.91,0,0,0,758,61.45Z" transform="translate(-0.01 -0.04)"/><path class="cls-1" d="M231.35,62.11c-.14,18.91-12.8,31.59-31.26,31.3-18.9-.29-31-13-30.8-32.3.19-18.83,12.76-31.41,31.32-31.34S231.46,42.75,231.35,62.11Zm-46.19-.59c.79,3.55,1.22,7.37,2.53,10.87,2,5.38,7,8.2,13.07,8,5.88-.18,10.19-2.92,12.34-8.38a28,28,0,0,0,.25-20.32c-2.13-5.84-6.73-8.9-13-8.91s-11,3-13,8.83c-1.06,3.07-1.46,6.38-2.23,9.91Z" transform="translate(-0.01 -0.04)"/><path class="cls-1" d="M639,61.6c0,19.16-12.09,31.69-30.67,31.81C589.52,93.54,577.17,81,577,61.63c-.17-18.93,12.63-31.95,31.32-31.86C626.79,29.86,639,42.53,639,61.6Zm-15.88.71c-.54-3.37-.75-6.19-1.47-8.88-1.87-7-6.73-10.68-13.68-10.66-6.77,0-12.42,3.88-13.42,10.84a54.3,54.3,0,0,0,.55,17.53c1.11,5.82,6.14,9,12,9.26,6.3.31,11.31-2.42,13.51-8C621.94,69,622.35,65.38,623.11,62.31Z" transform="translate(-0.01 -0.04)"/><path class="cls-1" d="M649.52,60.59c0-7.45.11-14.91,0-22.36-.08-3.65,1.64-5.64,4.94-6.39,10.35-2.36,20.74-3,31,.45,10.76,3.62,17.35,11.23,18.46,22.43a52.2,52.2,0,0,1-1.29,19c-3.23,11.34-12.07,17.42-23.49,18.59-7.16.74-14.57,0-21.77-.89-6-.75-7.73-3.43-7.77-9.51C649.49,74.83,649.52,67.71,649.52,60.59Zm15.54.33c0,5.12-.15,10.26.1,15.38.06,1.27,1.16,3.22,2.23,3.61,7.37,2.63,17.15-2.09,19.38-9.63a33.29,33.29,0,0,0,1.1-11.71C687,47.76,680,42.14,669.07,42.85,666.19,43,664.88,44,665,47c.19,4.62,0,9.29.06,13.9Z" transform="translate(-0.01 -0.04)"/><path class="cls-1" d="M906.26,30.08a54.08,54.08,0,0,1,13.51,2.64,7.07,7.07,0,0,1,4.85,8.3c-.67,4-3,4.93-7,4A62.48,62.48,0,0,0,903,43.34c-1.77,0-3.5,2.8-5.26,4.31,1.47,1.56,2.65,3.72,4.45,4.56,4.5,2.11,9.42,3.31,13.91,5.42,8.79,4.12,12.43,10.35,11.59,18.9-.72,7.43-6,13-14.87,15.45a40.57,40.57,0,0,1-23.13-.57c-5.77-1.75-8.74-5.41-8.43-9.7.36-5.1,3.86-7.11,8.28-4.72,5.12,2.77,10.57,4.5,16.26,2.78,2.16-.65,5-3,5.22-4.91.23-1.72-2.21-4.65-4.18-5.62-4.44-2.19-9.38-3.33-14-5.2-8.44-3.43-11.79-8.59-11.5-17.2.25-7.45,4.45-12.81,12.65-15.33C897.74,30.37,901.5,30.51,906.26,30.08Z" transform="translate(-0.01 -0.04)"/><path class="cls-1" d="M470.52,54.76c6.47,0,12.46.25,18.41-.09,4.27-.24,5.76,1.83,5.89,5.47.13,3.88-1,7-5.67,7.17a108.43,108.43,0,0,1-13,0c-4.91-.45-6.66,1.39-6,6.12a45,45,0,0,1,0,5.92c7.7,0,14.82.26,21.92-.1,4.58-.23,5.87,2,5.9,5.83s-1.28,6.59-5.63,6.61c-10,0-20,.14-30-.06-4.7-.09-7.46-2.88-7.5-7.58q-.21-22.39,0-44.78c.05-4.55,3-7.45,7.61-7.53,10.32-.2,20.65-.06,31-.09,4.4,0,3.94,3.46,4,6,.15,3.5-1.36,6.23-5.43,6.31-5.16.1-10.32,0-15.48.06-6.55,0-6.56,0-6.43,6.5C470.26,51.7,470.35,52.83,470.52,54.76Z" transform="translate(-0.01 -0.04)"/><path class="cls-1" d="M549.55,31.65c6.32,0,12.65.17,19-.07,3.53-.13,5.34,1.08,5.52,4.61s0,7.27-4.65,8a43.41,43.41,0,0,1-8.45.31c-3.31-.17-4.3,1.24-4.27,4.39.11,12.26,0,24.52,0,36.79,0,6.22-.44,6.64-6.78,6.77s-9.08-1.77-9.14-7.11c-.14-11.59-.27-23.2.05-34.79.14-4.76-1.22-6.77-6.08-6-1.46.22-3-.12-4.48.07-4.73.59-6.76-1.54-6.74-6.14,0-4.83,1.83-6.68,7.07-6.73C536.91,31.61,543.23,31.65,549.55,31.65Z" transform="translate(-0.01 -0.04)"/><path class="cls-1" d="M964.49,44.31V91.37c-2.35.37-4.28.84-6.24,1-7.24.43-9.75-1.91-9.77-9.07V44.5c-3.86,0-7.44-.2-11,.06-4.33.32-6-1.64-6.11-5.73-.08-4.83,1.6-7,6.16-7.13,6.82-.14,13.64,0,20.46,0,6,0,12,.23,18-.08,4.08-.22,5.83,1.31,6,5.25s-.8,7.13-5.34,7.47C972.83,44.57,969,44.31,964.49,44.31Z" transform="translate(-0.01 -0.04)"/><path class="cls-1" d="M308.23,58.82c0-7.63.16-15.26-.07-22.87-.11-3.63,1.26-5,4.78-5.29,9.08-.68,11.28,1.26,11.29,10.42,0,11.11.11,22.22-.07,33.32-.05,3.4,1,4.79,4.49,4.66,5.15-.19,10.32.17,15.47,0,3.73-.16,5.12,1.61,5.26,5s0,7.4-4.42,7.56c-10.13.36-20.3.39-30.42-.09-4.87-.24-6.24-4.42-6.29-8.74C308.18,74.73,308.23,66.78,308.23,58.82Z" transform="translate(-0.01 -0.04)"/><path class="cls-1" d="M819.78,79.06c6.82,0,13.13.26,19.4-.08,4.64-.26,5.83,2.11,5.89,6,.07,4.06-1.37,6.8-6,6.79-9,0-18,.09-27,0-5.23-.08-8.13-2.63-8.21-8-.23-16.42-.12-32.84-.07-49.27,0-.89.53-2.53.92-2.56,3.72-.33,7.67-1.13,11.11-.19,1.77.48,3.65,4.2,3.73,6.51.38,11.61.18,23.23.18,34.84Z" transform="translate(-0.01 -0.04)"/><path class="cls-1" d="M854.43,60.16c0-8.28.15-16.57-.07-24.84-.09-3.34,1.37-4.32,4.32-4.62,9.18-.93,11.7,1.24,11.72,10.54,0,15.07-.13,30.15.1,45.22.06,4-1.29,5.55-5.21,5.89-8.32.73-10.83-1.37-10.86-9.82C854.41,75.07,854.43,67.62,854.43,60.16Z" transform="translate(-0.01 -0.04)"/><path class="cls-1" d="M358.89,60.13c0-8.27.14-16.54-.08-24.8-.08-3.3,1.33-4.32,4.29-4.63,9-.92,11.46,1.14,11.46,10.08,0,15-.29,30.11.16,45.14.17,5.49-2.31,6.42-6.66,6.5-6.24.12-9-1.62-9.11-6.5-.17-8.59,0-17.19,0-25.79Z" transform="translate(-0.01 -0.04)"/></g></svg>